<svg id="Layer_1" data-name="Layer 1" xmlns="http://www.w3.org/2000/svg" viewBox="0 0 50 50"><defs><style>.cls-1{fill:#f78e21;}</style></defs><title>Icon_insta</title><path class="cls-1" d="M30.48,14.32h-11a4.89,4.89,0,0,0-4.88,4.88v11a4.89,4.89,0,0,0,4.88,4.88h11a4.89,4.89,0,0,0,4.88-4.88v-11A4.89,4.89,0,0,0,30.48,14.32ZM25,31a6.3,6.3,0,1,1,6.3-6.3A6.31,6.31,0,0,1,25,31Zm6.88-12.18a1.31,1.31,0,1,1,1.3-1.3A1.3,1.3,0,0,1,31.85,18.84Z"/><path class="cls-1" d="M25,21.5a3.22,3.22,0,1,0,3.22,3.22A3.22,3.22,0,0,0,25,21.5Z"/><path class="cls-1" d="M25,2.56A22.16,22.16,0,1,0,47.12,24.72,22.16,22.16,0,0,0,25,2.56ZM39.16,31.07a7.85,7.85,0,0,1-7.84,7.84H18.61a7.84,7.84,0,0,1-7.83-7.84V18.36a7.84,7.84,0,0,1,7.83-7.83H31.32a7.85,7.85,0,0,1,7.84,7.83Z"/></svg>