<svg id="Layer_1" data-name="Layer 1" xmlns="http://www.w3.org/2000/svg" viewBox="0 0 50 50"><defs><style>.cls-1{fill:#f78e21;}</style></defs><title>icon_mail</title><polygon class="cls-1" points="14.52 21.8 14.52 27.98 17.53 24.1 14.52 21.8"/><path class="cls-1" d="M25.17,24.68h0l9.62-8.56a3.91,3.91,0,0,0-3.22-1.68H18.46a3.94,3.94,0,0,0-3.61,2.36l0,0Z"/><path class="cls-1" d="M27.91,27.89a4.25,4.25,0,0,1-2.72,1A4.19,4.19,0,0,1,22.62,28l-1.77-1.36-5.58,7.2a4,4,0,0,0,3.19,1.63H31.61a3.94,3.94,0,0,0,3.73-2.69l-5.75-6.4Z"/><path class="cls-1" d="M25,2.81A22.16,22.16,0,1,0,47.19,25,22.16,22.16,0,0,0,25,2.81ZM39.27,31.53a7.67,7.67,0,0,1-7.66,7.67H18.46a7.68,7.68,0,0,1-7.66-7.67V18.39a7.68,7.68,0,0,1,7.66-7.67H31.61a7.67,7.67,0,0,1,7.66,7.67Z"/><polygon class="cls-1" points="35.55 26.75 35.55 21.1 32.73 23.61 35.55 26.75"/></svg>