<svg id="Layer_1" data-name="Layer 1" xmlns="http://www.w3.org/2000/svg" viewBox="0 0 50 50"><defs><style>.cls-1{fill:#f78e21;}</style></defs><title>icon_call</title><circle class="cls-1" cx="26.9" cy="17.71" r="0.87"/><path class="cls-1" d="M25,2.56A22.16,22.16,0,1,0,47.12,24.72,22.16,22.16,0,0,0,25,2.56ZM36.05,35.93c-.55,1.54-2.7,2.81-4.43,3.18-1.18.25-2.71.45-7.89-1.69-6.63-2.75-10.9-9.48-11.23-9.92s-2.68-3.57-2.68-6.8a7.18,7.18,0,0,1,2.31-5.49,3.24,3.24,0,0,1,2.3-.81c.28,0,.53,0,.76,0,.66,0,1,.06,1.43,1.11.54,1.31,1.87,4.55,2,4.88a1.33,1.33,0,0,1,.09,1.22,3.86,3.86,0,0,1-.73,1c-.33.39-.65.68-1,1.09s-.65.74-.26,1.41a19.87,19.87,0,0,0,3.65,4.54A16.53,16.53,0,0,0,25.71,33a1.4,1.4,0,0,0,1.59-.25,24.49,24.49,0,0,0,1.76-2.33,1.25,1.25,0,0,1,1.62-.49c.61.21,3.83,1.8,4.49,2.13s1.1.49,1.26.77A5.61,5.61,0,0,1,36.05,35.93Zm2.73-15.28a1.72,1.72,0,0,1-1.71,1.72H28.74l-3.53,1.8v-1.8a1.71,1.71,0,0,1-1.71-1.72V15.17a1.71,1.71,0,0,1,1.71-1.71H37.07a1.72,1.72,0,0,1,1.71,1.71Z"/><circle class="cls-1" cx="31.14" cy="17.71" r="0.87"/><circle class="cls-1" cx="35.38" cy="17.71" r="0.87"/></svg>