<svg id="Layer_1" data-name="Layer 1" xmlns="http://www.w3.org/2000/svg" viewBox="0 0 50 50"><defs><style>.cls-1{fill:#f78e21;}</style></defs><title>Icon_whats</title><path class="cls-1" d="M25,2.81h0A22.17,22.17,0,0,0,7,38L4.27,46.25l8.53-2.73A22,22,0,0,0,25,47.19,22.19,22.19,0,0,0,25,2.81ZM37.92,34.14c-.54,1.52-2.66,2.77-4.36,3.14-1.16.24-2.67.44-7.77-1.67-6.52-2.71-10.72-9.33-11-9.76s-2.63-3.51-2.63-6.69a7.07,7.07,0,0,1,2.27-5.4,3.2,3.2,0,0,1,2.27-.8c.27,0,.52,0,.74,0,.65,0,1,.06,1.41,1.09.53,1.29,1.84,4.47,2,4.8a1.32,1.32,0,0,1,.1,1.2,3.78,3.78,0,0,1-.72,1c-.33.38-.64.67-1,1.07a1,1,0,0,0-.26,1.38A19.73,19.73,0,0,0,22.54,28a16.14,16.14,0,0,0,5.21,3.2A1.39,1.39,0,0,0,29.31,31,25.27,25.27,0,0,0,31,28.69a1.25,1.25,0,0,1,1.6-.48c.59.21,3.76,1.77,4.42,2.1s1.08.48,1.24.76a5.6,5.6,0,0,1-.38,3.07Zm0,0"/></svg>